<?xml version="1.0" standalone="no"?>
<!DOCTYPE svg PUBLIC "-//W3C//DTD SVG 20010904//EN"
 "http://www.w3.org/TR/2001/REC-SVG-20010904/DTD/svg10.dtd">
<svg version="1.0" xmlns="http://www.w3.org/2000/svg"
 width="260.000000pt" height="260.000000pt" viewBox="0 0 260.000000 260.000000"
 preserveAspectRatio="xMidYMid meet">
<metadata>
Created by potrace 1.11, written by Peter Selinger 2001-2013
</metadata>
<g transform="translate(0.000000,260.000000) scale(0.100000,-0.100000)"
fill="#000000" stroke="none">
<path d="M717 2558 c-46 -99 -66 -153 -83 -222 l-18 -76 -35 65 c-19 36 -41
65 -47 65 -15 0 -24 -33 -24 -95 l-1 -50 -32 59 c-18 33 -36 59 -42 58 -5 -1
-12 -27 -15 -59 -4 -51 -8 -58 -30 -63 -22 -5 -25 -12 -28 -52 l-3 -47 -29 32
c-15 18 -32 29 -36 24 -12 -11 13 -147 42 -231 23 -68 25 -86 20 -159 -4 -45
-7 -100 -7 -122 0 -22 2 -374 5 -782 2 -408 7 -746 11 -752 11 -18 1097 -15
1284 4 148 15 277 43 333 71 136 70 257 211 298 349 6 22 15 99 19 170 l7 130
55 87 c54 84 128 253 116 264 -14 14 -52 -13 -140 -100 -88 -87 -95 -93 -104
-73 -6 14 -6 65 0 135 7 81 7 120 -1 137 -14 31 -24 31 -38 2 -56 -111 -77
-146 -85 -141 -5 3 -9 12 -9 20 0 8 -7 14 -15 14 -24 0 -75 29 -75 42 0 6 17
27 38 47 88 85 145 194 163 311 6 41 22 120 34 175 24 101 34 199 22 211 -10
10 -32 -12 -66 -63 -27 -41 -30 -43 -40 -24 -6 11 -11 77 -11 150 0 145 -9
162 -48 94 l-21 -38 6 93 c6 89 5 92 -16 92 -14 0 -21 6 -21 20 0 11 -5 20
-11 20 -15 0 -86 -77 -106 -115 -15 -28 -37 -55 -46 -55 -2 0 -1 19 4 43 4 23
8 57 9 75 0 42 -13 35 -72 -34 -24 -28 -49 -49 -56 -46 -8 2 -12 29 -12 82 0
109 -21 115 -66 20 -22 -46 -62 -79 -96 -80 -27 0 -28 2 -28 54 0 109 -26 115
-72 16 -18 -38 -36 -70 -39 -70 -3 0 -9 28 -13 62 -3 34 -8 63 -10 66 -10 9
-28 -12 -49 -56 -18 -39 -23 -43 -25 -24 -3 16 -8 21 -21 17 -13 -4 -20 4 -30
32 -25 70 -75 173 -84 173 -5 0 -11 -9 -14 -20 -9 -34 -23 -22 -23 21 0 59
-26 48 -64 -28 -18 -37 -36 -61 -43 -58 -15 5 -39 -30 -81 -118 -31 -65 -34
-68 -64 -65 -27 3 -33 8 -40 38 -21 90 -62 220 -69 220 -18 0 -30 -45 -41
-150 -8 -78 -15 -110 -25 -110 -16 0 -16 0 2 85 8 39 15 114 15 168 0 96 0 97
-24 97 -17 0 -28 -9 -39 -32z m720 -851 c52 -28 66 -58 61 -129 -4 -49 -9 -65
-29 -81 l-24 -19 -13 48 c-21 77 -44 134 -54 134 -12 0 -24 -35 -38 -120 -13
-72 -14 -74 -22 -40 -5 19 -18 66 -29 104 -19 64 -21 67 -38 52 -10 -9 -28
-39 -42 -68 l-24 -51 -7 48 c-10 68 -21 74 -51 25 -23 -39 -25 -40 -31 -18 -3
13 -6 49 -6 82 l0 58 158 -4 c123 -3 164 -8 189 -21z m64 -759 l36 -16 -8 -53
c-4 -30 -8 -81 -9 -114 -1 -62 -3 -63 -36 -8 -15 23 -26 12 -33 -34 -9 -56
-32 -53 -63 9 -14 29 -29 67 -33 85 -3 17 -12 37 -20 43 -17 14 -30 -7 -40
-63 -8 -41 -20 -48 -30 -17 -3 11 -10 20 -14 20 -9 0 -51 -91 -51 -109 0 -6
-7 -11 -15 -11 -8 0 -28 28 -45 63 -17 34 -35 66 -41 71 -5 6 -9 43 -9 84 l0
74 188 -4 c141 -3 196 -8 223 -20z"/>
</g>
</svg>
