<?xml version="1.0" encoding="iso-8859-1"?>
<!-- Generator: Adobe Illustrator 19.0.0, SVG Export Plug-In . SVG Version: 6.00 Build 0)  -->
<svg version="1.1" id="Layer_1" xmlns="http://www.w3.org/2000/svg" xmlns:xlink="http://www.w3.org/1999/xlink" x="0px" y="0px"
	 viewBox="0 0 504.123 504.123" style="enable-background:new 0 0 504.123 504.123;" xml:space="preserve">
<ellipse style="fill:#97A8AA;" cx="252.069" cy="464.03" rx="165.25" ry="40.07"/>
<path style="fill:#AEB9BA;" d="M417.327,464.053c0,22.142-73.988,40.07-165.258,40.07s-165.25-17.928-165.25-40.07"/>
<g>
	<path style="fill:#E8B277;" d="M103.897,160.792l21.173,21.173l21.173-21.173l21.173,21.173l21.173-21.173l21.173,21.173
		l21.173-21.173l21.173,21.173l21.173-21.173l21.173,21.173l21.173-21.173l21.173,21.173l21.173-21.173l21.173,21.173l21.173-21.173
		l14.557,14.564C382.708,87.048,321.875,0,252.062,0C182.296,0,121.478,87.04,89.356,175.34L103.897,160.792z"/>
	<path style="fill:#E8B277;" d="M424.802,205.887l-24.537,24.537l-21.173-21.173l-21.173,21.173l-21.173-21.173l-21.173,21.173
		L294.4,209.25l-21.173,21.173l-21.15-21.173l-21.173,21.173l-21.173-21.173l-21.173,21.173l-21.173-21.173l-21.173,21.173
		l-21.173-21.173l-21.173,21.173l-24.537-24.529c-9.169,31.815-14.249,62.503-14.249,87.891
		c0,103.282,83.724,186.998,186.951,186.998c103.29,0,186.982-83.716,186.982-186.998
		C439.044,268.39,433.971,237.71,424.802,205.887z"/>
</g>
<g>
	<path style="fill:#EFBF8B;" d="M103.897,160.792l21.173,21.173l21.173-21.173l2.135,2.143L252.062,0
		C182.296,0,121.478,87.04,89.356,175.34L103.897,160.792z"/>
	<path style="fill:#EFBF8B;" d="M103.897,230.424L79.36,205.895c-9.169,31.815-14.249,62.503-14.249,87.891l43-67.576
		L103.897,230.424z"/>
</g>
<g>
	<path style="fill:#D89E60;" d="M252.077,181.965l21.173-21.173l21.173,21.173l21.173-21.173l21.173,21.173l21.173-21.173
		l21.173,21.173l21.173-21.173l14.557,14.564C382.708,87.048,321.875,0,252.062,0v181.957L252.077,181.965z"/>
	<path style="fill:#D89E60;" d="M424.802,205.887l-24.537,24.537l-21.173-21.173l-21.173,21.173l-21.173-21.173l-21.173,21.173
		L294.4,209.25l-21.173,21.173l-21.15-21.173l-0.016,0.008v271.525c103.29,0,186.982-83.716,186.982-186.998
		C439.044,268.39,433.971,237.71,424.802,205.887z"/>
</g>
<g>
</g>
<g>
</g>
<g>
</g>
<g>
</g>
<g>
</g>
<g>
</g>
<g>
</g>
<g>
</g>
<g>
</g>
<g>
</g>
<g>
</g>
<g>
</g>
<g>
</g>
<g>
</g>
<g>
</g>
</svg>
