<?xml version="1.0" encoding="iso-8859-1"?>
<!-- Generator: Adobe Illustrator 19.0.0, SVG Export Plug-In . SVG Version: 6.00 Build 0)  -->
<svg version="1.1" id="Layer_1" xmlns="http://www.w3.org/2000/svg" xmlns:xlink="http://www.w3.org/1999/xlink" x="0px" y="0px"
	 viewBox="0 0 503.415 503.415" style="enable-background:new 0 0 503.415 503.415;" xml:space="preserve">
<path style="fill:#EA371F;" d="M457.335,501.083c-6.814-61.582-93.019-110.293-198.404-110.293S67.357,439.502,60.535,501.083
	H457.335z"/>
<path style="fill:#148DE0;" d="M407.939,486.637c0,7.971-6.459,14.446-14.446,14.446H124.37c-7.971,0-14.431-6.475-14.431-14.446
	l0,0c0-7.987,6.459-14.446,14.431-14.446h269.123C401.48,472.191,407.939,478.658,407.939,486.637L407.939,486.637z"/>
<path style="fill:#67BEEF;" d="M393.493,472.191H124.37c-4.726,0-8.893,2.308-11.524,5.829c2.631,3.521,6.798,5.829,11.524,5.829
	h269.123c4.742,0,8.901-2.308,11.54-5.829C402.394,474.499,398.235,472.191,393.493,472.191z"/>
<path style="fill:#C12414;" d="M109.183,431.239c40.495,14.076,92.719,19.322,149.756,19.322s109.261-5.246,149.756-19.322
	c-36.447-24.773-90.002-40.448-149.756-40.448S145.622,406.466,109.183,431.239z"/>
<path style="fill:#C6BD8B;" d="M491.931,297.686c0,94.767-104.314,121.368-232.992,121.368s-232.992-26.6-232.992-121.368
	c0-94.783,104.314-171.615,232.992-171.615S491.931,202.903,491.931,297.686z"/>
<path style="fill:#C98D61;" d="M491.931,297.686c0,94.767-104.314,121.368-232.992,121.368s-232.992-26.6-232.992-121.368
	c0-94.783,104.314-147.787,232.992-147.787S491.931,202.903,491.931,297.686z"/>
<path style="fill:#E8A874;" d="M491.931,297.686c0,94.767-104.314,121.368-232.992,121.368s-232.992-26.6-232.992-121.368
	c0-94.783,104.314-43.26,232.992-43.26S491.931,202.903,491.931,297.686z"/>
<ellipse transform="matrix(-0.1193 -0.9929 0.9929 -0.1193 -16.6025 461.6428)" style="fill:#EA371F;" cx="196.446" cy="238.185" rx="41.363" ry="140.806"/>
<ellipse transform="matrix(-0.1193 -0.9929 0.9929 -0.1193 15.6546 425.2759)" style="fill:#C12414;" cx="196.446" cy="205.695" rx="41.363" ry="140.806"/>
<path style="fill:#EA371F;" d="M113.508,220.129c0,0-49.892,52.508-21.016,189.046l-60.384-5.262l-3.938-26.246l-11.815,21
	L0.6,388.16c0,0-10.508-126.015,56.446-186.415L113.508,220.129z"/>
<path style="fill:#C12414;" d="M28.059,239.436c12.524,2.954,26.923,4.647,42.275,4.647c10.516,0,20.551-0.827,29.877-2.276
	c6.892-14.911,13.296-21.677,13.296-21.677l-56.462-18.385C45.065,212.56,35.581,225.517,28.059,239.436z"/>
<path style="fill:#EA371F;" d="M389.909,220.129c0,0,49.892,52.508,21.008,189.046l60.392-5.262l3.938-26.246l11.815,21
	l15.754-10.508c0,0,10.5-126.015-56.454-186.415L389.909,220.129z"/>
<path style="fill:#C12414;" d="M475.358,239.436c-12.524,2.954-26.923,4.647-42.275,4.647c-10.516,0-20.551-0.827-29.885-2.276
	c-6.884-14.911-13.288-21.677-13.288-21.677l56.454-18.385C458.351,212.56,467.835,225.517,475.358,239.436z"/>
<g>
	<circle style="fill:#082856;" cx="166.858" cy="323.514" r="20.929"/>
	<circle style="fill:#082856;" cx="351.036" cy="323.514" r="20.929"/>
</g>
<path d="M187.787,323.514c0,11.571-9.366,20.937-20.929,20.937s-20.929-9.366-20.929-20.937"/>
<path d="M371.949,323.514c0,11.571-9.366,20.937-20.913,20.937c-11.571,0-20.937-9.366-20.937-20.937"/>
<path style="fill:#CE416F;" d="M333.77,373.729c0,11.973-33.201,21.662-74.169,21.662s-74.177-9.689-74.177-21.662
	c0-11.957,33.209-1.969,74.177-1.969S333.77,361.78,333.77,373.729z"/>
<path style="fill:#148DE0;" d="M110.286,156.87c0,0,39.881,0.677,46.608-82.062c3.781-46.135,41.535-103.337,97.256-52.681
	s42.551-13.17,76.973,5.065c34.469,18.243,26.372,117.524,62.842,132.71c36.478,15.202-169.188,36.478-169.188,36.478
	L122.44,161.935L110.286,156.87z"/>
<path style="fill:#1758DD;" d="M331.123,56.069c-34.422-18.227-21.26,45.6-76.973-5.065s-93.468,6.538-97.256,52.681
	c-2.615,32.169-10.248,51.688-18.597,63.583l86.481,29.105c0,0,107.607-11.138,153.332-23.048
	C359.047,140.423,359.386,71.027,331.123,56.069z"/>
<path style="fill:#723E14;" d="M409.499,169.347c0,17.353-14.045,31.413-31.421,31.413H136.981
	c-17.329,0-31.413-14.06-31.413-31.413l0,0c0-17.337,14.084-31.397,31.413-31.397h241.097
	C395.454,137.949,409.499,152.01,409.499,169.347L409.499,169.347z"/>
<path style="fill:#49290A;" d="M336.054,169.347c0,17.353-7.286,31.413-16.242,31.413H195.254c-8.972,0-16.234-14.06-16.234-31.413
	l0,0c0-17.337,7.263-31.397,16.234-31.397h124.55C328.768,137.949,336.054,152.01,336.054,169.347L336.054,169.347z"/>
<path style="fill:#148DE0;" d="M500.91,155.483c0,47.049-111.561,85.157-249.194,85.157c-137.665,0-249.218-38.109-249.218-85.157
	c0-47.033,111.553,15.045,249.218,15.045C389.349,170.528,500.91,108.45,500.91,155.483z"/>
<g>
	<path style="fill:#1758DD;" d="M251.716,170.528c-112.53,0-207.502-41.401-238.49-30.878
		c30.996,35.013,125.96,60.479,238.49,60.479c112.49,0,207.502-25.458,238.49-60.479
		C459.218,129.127,364.206,170.528,251.716,170.528z"/>
	<path style="fill:#1758DD;" d="M132.341,501.083v-84.196c0-7.877-6.396,3.458-14.273,3.458c-7.893,0-14.273,6.388-14.273,14.273
		v66.465H132.341z"/>
</g>
<path style="fill:#148DE0;" d="M118.06,420.345c-7.893,0-14.273,6.388-14.273,14.273v42.835h28.554v-60.566
	C132.341,409.01,125.937,420.345,118.06,420.345z"/>
<path style="fill:#1758DD;" d="M385.537,501.083v-84.196c0-7.877,6.396,3.458,14.273,3.458c7.893,0,14.273,6.388,14.273,14.273
	v66.465H385.537z"/>
<path style="fill:#148DE0;" d="M399.818,420.345c7.893,0,14.273,6.388,14.273,14.273v42.835h-28.554v-60.566
	C385.537,409.01,391.941,420.345,399.818,420.345z"/>
<g>
</g>
<g>
</g>
<g>
</g>
<g>
</g>
<g>
</g>
<g>
</g>
<g>
</g>
<g>
</g>
<g>
</g>
<g>
</g>
<g>
</g>
<g>
</g>
<g>
</g>
<g>
</g>
<g>
</g>
</svg>
