<?xml version="1.0" encoding="iso-8859-1"?>
<!-- Generator: Adobe Illustrator 19.0.0, SVG Export Plug-In . SVG Version: 6.00 Build 0)  -->
<svg version="1.1" id="Layer_1" xmlns="http://www.w3.org/2000/svg" xmlns:xlink="http://www.w3.org/1999/xlink" x="0px" y="0px"
	 viewBox="0 0 504.123 504.123" style="enable-background:new 0 0 504.123 504.123;" xml:space="preserve">
<polygon style="fill:#F49C00;" points="472.489,73.196 341.047,96.827 341.047,19.042 472.489,42.673 "/>
<polygon style="fill:#F28A00;" points="472.489,73.196 341.047,96.827 341.047,48.085 472.489,42.673 "/>
<path style="fill:#148DE0;" d="M330.342,34.914v47.262h-88.615v121.108h88.615v47.262h-88.615
	c-26.065,0-47.262-21.197-47.262-47.262V82.176c0-26.065,21.197-47.262,47.262-47.262H330.342z"/>
<path style="fill:#0475BA;" d="M273.723,66.918c-26.065,0-47.262,21.197-47.262,47.262v121.108c0,4.632,0.693,9.09,1.938,13.32
	c4.23,1.237,8.696,1.938,13.32,1.938h88.615v-15.258h-56.611v-31.996h-31.996V82.176h88.615V66.918H273.723z"/>
<path style="fill:#586468;" d="M504.123,493.95v-19.102c0-13.202-10.705-23.906-23.906-23.906H23.906
	C10.705,450.942,0,461.647,0,474.849v19.102H504.123z"/>
<path style="fill:#1CA6F4;" d="M351.831,229.089c0,13.052-10.571,23.631-23.631,23.631H23.631C10.587,252.719,0,242.141,0,229.089
	v-2.623c0-13.052,10.587-23.631,23.631-23.631H328.2c13.06,0,23.631,10.579,23.631,23.631V229.089z"/>
<path style="fill:#148DE0;" d="M23.631,221.873c-10.153,0-18.739,6.435-22.079,15.423c3.34,8.988,11.926,15.423,22.079,15.423H328.2
	c10.161,0,18.747-6.435,22.095-15.423c-3.348-8.988-11.934-15.423-22.095-15.423H23.631z"/>
<g>
	<path style="fill:#50C9FF;" d="M106.346,213.996H28.893c-2.174,0-3.938-1.764-3.938-3.938s1.764-3.938,3.938-3.938h77.454
		c2.174,0,3.938,1.764,3.938,3.938S108.52,213.996,106.346,213.996z"/>
	<path style="fill:#50C9FF;" d="M126.039,213.996h-6.231c-2.174,0-3.938-1.764-3.938-3.938s1.764-3.938,3.938-3.938h6.231
		c2.174,0,3.938,1.764,3.938,3.938S128.213,213.996,126.039,213.996z"/>
</g>
<path style="fill:#1CA6F4;" d="M351.831,279.304c0,13.052-10.571,23.631-23.631,23.631H23.631C10.587,302.935,0,292.356,0,279.304
	v-2.623c0-13.052,10.587-23.631,23.631-23.631H328.2c13.06,0,23.631,10.579,23.631,23.631V279.304z"/>
<path style="fill:#148DE0;" d="M23.631,272.089c-10.153,0-18.739,6.435-22.079,15.423c3.34,8.988,11.926,15.423,22.079,15.423H328.2
	c10.161,0,18.747-6.435,22.095-15.423c-3.348-8.988-11.934-15.423-22.095-15.423H23.631z"/>
<g>
	<path style="fill:#50C9FF;" d="M106.346,264.212H28.893c-2.174,0-3.938-1.764-3.938-3.938s1.764-3.938,3.938-3.938h77.454
		c2.174,0,3.938,1.764,3.938,3.938S108.52,264.212,106.346,264.212z"/>
	<path style="fill:#50C9FF;" d="M126.039,264.212h-6.231c-2.174,0-3.938-1.764-3.938-3.938s1.764-3.938,3.938-3.938h6.231
		c2.174,0,3.938,1.764,3.938,3.938S128.213,264.212,126.039,264.212z"/>
</g>
<path style="fill:#1CA6F4;" d="M351.831,329.519c0,13.052-10.571,23.631-23.631,23.631H23.631C10.587,353.15,0,342.571,0,329.519
	v-2.623c0-13.052,10.587-23.631,23.631-23.631H328.2c13.06,0,23.631,10.579,23.631,23.631V329.519z"/>
<path style="fill:#148DE0;" d="M23.631,322.304c-10.153,0-18.739,6.435-22.079,15.423c3.34,8.988,11.926,15.423,22.079,15.423H328.2
	c10.161,0,18.747-6.435,22.095-15.423c-3.348-8.988-11.934-15.423-22.095-15.423H23.631z"/>
<g>
	<path style="fill:#50C9FF;" d="M106.346,314.427H28.893c-2.174,0-3.938-1.764-3.938-3.938s1.764-3.938,3.938-3.938h77.454
		c2.174,0,3.938,1.764,3.938,3.938S108.52,314.427,106.346,314.427z"/>
	<path style="fill:#50C9FF;" d="M126.039,314.427h-6.231c-2.174,0-3.938-1.764-3.938-3.938s1.764-3.938,3.938-3.938h6.231
		c2.174,0,3.938,1.764,3.938,3.938S128.213,314.427,126.039,314.427z"/>
</g>
<path style="fill:#1CA6F4;" d="M351.831,379.735c0,13.052-10.571,23.631-23.631,23.631H23.631C10.587,403.365,0,392.787,0,379.735
	v-2.623c0-13.052,10.587-23.631,23.631-23.631H328.2c13.06,0,23.631,10.579,23.631,23.631V379.735z"/>
<path style="fill:#148DE0;" d="M23.631,372.519c-10.153,0-18.739,6.435-22.079,15.423c3.34,8.988,11.926,15.423,22.079,15.423H328.2
	c10.161,0,18.747-6.435,22.095-15.423c-3.348-8.988-11.934-15.423-22.095-15.423H23.631z"/>
<g>
	<path style="fill:#50C9FF;" d="M106.346,364.642H28.893c-2.174,0-3.938-1.764-3.938-3.938s1.764-3.938,3.938-3.938h77.454
		c2.174,0,3.938,1.764,3.938,3.938S108.52,364.642,106.346,364.642z"/>
	<path style="fill:#50C9FF;" d="M126.039,364.642h-6.231c-2.174,0-3.938-1.764-3.938-3.938s1.764-3.938,3.938-3.938h6.231
		c2.174,0,3.938,1.764,3.938,3.938S128.213,364.642,126.039,364.642z"/>
</g>
<path style="fill:#1CA6F4;" d="M351.831,429.95c0,13.052-10.571,23.631-23.631,23.631H23.631C10.587,453.581,0,443.002,0,429.95
	v-2.623c0-13.052,10.587-23.631,23.631-23.631H328.2c13.06,0,23.631,10.579,23.631,23.631V429.95z"/>
<path style="fill:#148DE0;" d="M23.631,422.735c-10.153,0-18.739,6.435-22.079,15.423c3.34,8.988,11.926,15.423,22.079,15.423H328.2
	c10.161,0,18.747-6.435,22.095-15.423c-3.348-8.988-11.934-15.423-22.095-15.423H23.631z"/>
<g>
	<path style="fill:#50C9FF;" d="M106.346,414.858H28.893c-2.174,0-3.938-1.764-3.938-3.938s1.764-3.938,3.938-3.938h77.454
		c2.174,0,3.938,1.764,3.938,3.938S108.52,414.858,106.346,414.858z"/>
	<path style="fill:#50C9FF;" d="M126.039,414.858h-6.231c-2.174,0-3.938-1.764-3.938-3.938s1.764-3.938,3.938-3.938h6.231
		c2.174,0,3.938,1.764,3.938,3.938S128.213,414.858,126.039,414.858z"/>
</g>
<path style="fill:#0475BA;" d="M336.124,91.408c0,4.624-3.749,8.365-8.365,8.365l0,0c-4.624,0-8.365-3.749-8.365-8.365V24.454
	c0-4.624,3.749-8.365,8.365-8.365l0,0c4.624,0,8.365,3.749,8.365,8.365V91.408z"/>
<g>
	<path style="fill:#F28A00;" d="M345.663,96.134c0,5.278-4.261,9.555-9.539,9.555l0,0c-5.277,0-9.555-4.277-9.555-9.555V19.728
		c0-5.278,4.277-9.555,9.555-9.555l0,0c5.278,0,9.539,4.277,9.539,9.555V96.134z"/>
	<path style="fill:#F28A00;" d="M473.671,73.488c0,2.143-1.741,3.891-3.883,3.891l0,0c-2.15,0-3.891-1.749-3.891-3.891V42.374
		c0-2.143,1.741-3.891,3.891-3.891l0,0c2.143,0,3.883,1.749,3.883,3.891V73.488z"/>
</g>
<path style="fill:#F49C00;" d="M331.863,11.299c-3.111,1.575-5.293,4.71-5.293,8.428v76.398c0,3.726,2.182,6.853,5.293,8.428
	c3.096-1.575,5.278-4.71,5.278-8.428V19.728C337.14,16.01,334.95,12.875,331.863,11.299z"/>
<g>
	<path style="fill:#50C9FF;" d="M209.274,158.196c0,2.001-1.615,3.616-3.615,3.616l0,0c-2.001,0-3.6-1.615-3.6-3.616V83.365
		c0-1.993,1.599-3.608,3.6-3.608l0,0c2.001,0,3.615,1.615,3.615,3.608V158.196z"/>
	<circle style="fill:#50C9FF;" cx="219.128" cy="71.227" r="8.531"/>
	<circle style="fill:#50C9FF;" cx="229.959" cy="54.489" r="3.608"/>
</g>
<g>
</g>
<g>
</g>
<g>
</g>
<g>
</g>
<g>
</g>
<g>
</g>
<g>
</g>
<g>
</g>
<g>
</g>
<g>
</g>
<g>
</g>
<g>
</g>
<g>
</g>
<g>
</g>
<g>
</g>
</svg>
