<?xml version="1.0" encoding="iso-8859-1"?>
<!-- Generator: Adobe Illustrator 19.0.0, SVG Export Plug-In . SVG Version: 6.00 Build 0)  -->
<svg version="1.1" id="Layer_1" xmlns="http://www.w3.org/2000/svg" xmlns:xlink="http://www.w3.org/1999/xlink" x="0px" y="0px"
	 viewBox="0 0 504.123 504.123" style="enable-background:new 0 0 504.123 504.123;" xml:space="preserve">
<path style="fill:#FF9100;" d="M498.415,247.446l-69.443-69.443c-1.646-1.662-4.104-2.213-6.294-1.434
	c-2.206,0.772-3.773,2.741-4.033,5.049l-4.529,40.692l-59.683,45.371l-51.413-89.049c-5.419-9.381-15.439-15.171-26.285-15.171
	H126.916l-2.056-1.182V80.234l71.066-41.015l80.148,46.261c8.696,5.033,19.834,2.064,24.867-6.664
	c5.025-8.704,2.056-19.85-6.656-24.86L205.039,2.434c-5.648-3.245-12.572-3.245-18.211,0L97.551,53.957
	c-5.632,3.245-9.106,9.263-9.106,15.77v103.062c0,1.804,0.339,3.552,0.827,5.246c-0.134,0.213-0.331,0.37-0.465,0.599L7.99,318.614
	c-5.419,9.381-5.419,20.953,0,30.358l80.825,139.981c5.419,9.381,15.447,15.171,26.285,15.171h161.642
	c10.846,0,20.858-5.782,26.285-15.171l79.864-138.327l66.749-87.828l45.166-5.033c2.308-0.26,4.277-1.827,5.049-4.033
	C500.629,251.526,500.062,249.092,498.415,247.446z"/>
<path style="fill:#FF6D00;" d="M498.415,247.446l-69.443-69.443c-1.646-1.662-4.104-2.213-6.294-1.434
	c-2.206,0.772-3.773,2.741-4.033,5.049l-4.529,40.692l-39.432,79.644l-71.664-123.321c-5.419-9.381-15.439-15.171-26.285-15.171
	H126.916l-2.056-1.182V80.234l71.066-41.015l80.148,46.261c8.696,5.033,19.834,2.064,24.867-6.664
	c5.025-8.704,2.056-19.85-6.656-24.86L205.039,2.434c-5.648-3.245-12.572-3.245-18.211,0L97.551,53.957
	c-5.632,3.245-9.106,9.263-9.106,15.77v103.062c0,1.804,0.339,3.552,0.827,5.246c-0.134,0.213-0.331,0.37-0.465,0.599L7.99,318.614
	c-5.419,9.381-5.419,20.953,0,30.358l80.825,139.981c5.419,9.381,15.447,15.171,26.285,15.171h161.642
	c10.846,0,20.858-5.782,26.285-15.171l79.864-138.327l66.749-87.828l45.166-5.033c2.308-0.26,4.277-1.827,5.049-4.033
	C500.629,251.526,500.062,249.092,498.415,247.446z"/>
<path style="fill:#FF9100;" d="M47.777,417.879l247.808-247.816c-5.278-4.198-11.878-6.601-18.849-6.601H126.916l-2.056-1.182
	V80.234l71.066-41.015l80.148,46.261c8.696,5.033,19.834,2.064,24.867-6.664c5.025-8.704,2.056-19.85-6.656-24.86L205.039,2.434
	c-5.648-3.245-12.572-3.245-18.211,0l-83.984,48.459L89.288,64.449c-0.52,1.694-0.843,3.45-0.843,5.278v103.062
	c0,1.804,0.339,3.552,0.827,5.246c-0.134,0.213-0.331,0.37-0.465,0.599L7.99,318.614c-5.419,9.381-5.419,20.953,0,30.358
	L47.777,417.879z"/>
<g>
	<path style="fill:#FFAA00;" d="M124.86,80.234l71.066-41.015l80.148,46.261c8.696,5.033,19.834,2.064,24.867-6.664
		c5.025-8.704,2.056-19.85-6.656-24.86L205.039,2.434c-5.648-3.245-12.572-3.245-18.211,0l-83.984,48.459l-13.556,7.034
		c-0.52,1.694-0.843,9.972-0.843,11.8v103.062c0,1.804,0.339,3.552,0.827,5.246c-0.134,0.213-0.331,0.37-0.465,0.599L7.99,318.614
		c-5.419,9.381-5.419,20.953,0,30.358l39.786,68.907"/>
</g>
<path style="fill:#FF6D00;" d="M280.831,168.999c0,15.431-39.684,10.736-88.615,10.736c-48.947,0-88.615,4.695-88.615-10.736
	c0-15.415,39.668-27.924,88.615-27.924C241.147,141.076,280.831,153.584,280.831,168.999z"/>
<path style="fill:#FF9100;" d="M192.216,168.582c42.378,0,77.761,3.489,86.489-5.6c-8.728-12.524-44.119-21.906-86.489-21.906
	c-42.401,0-77.777,9.381-86.504,21.906C114.439,172.079,149.814,168.582,192.216,168.582z"/>
<path style="fill:#082856;" d="M223.385,132.261c0,9.618-7.798,17.4-17.384,17.4h-27.569c-9.618,0-17.4-7.782-17.4-17.4l0,0
	c0-9.602,7.782-17.384,17.4-17.384H206C215.587,114.877,223.385,122.659,223.385,132.261L223.385,132.261z"/>
<path style="fill:#144682;" d="M206,114.877h-27.569c-6.632,0-12.312,3.742-15.265,9.184c2.946,5.443,8.633,9.184,15.265,9.184H206
	c6.617,0,12.304-3.742,15.234-9.184C218.296,118.619,212.617,114.877,206,114.877z"/>
<path style="fill:#EA5706;" d="M88.815,488.952c5.419,9.381,15.447,15.171,26.285,15.171h161.642
	c10.846,0,20.858-5.782,26.285-15.171l79.864-138.327l0.284-0.386l-319.63,94.948L88.815,488.952z"/>
<g>
</g>
<g>
</g>
<g>
</g>
<g>
</g>
<g>
</g>
<g>
</g>
<g>
</g>
<g>
</g>
<g>
</g>
<g>
</g>
<g>
</g>
<g>
</g>
<g>
</g>
<g>
</g>
<g>
</g>
</svg>
