<?xml version="1.0" encoding="iso-8859-1"?>
<!-- Generator: Adobe Illustrator 19.0.0, SVG Export Plug-In . SVG Version: 6.00 Build 0)  -->
<svg version="1.1" id="Layer_1" xmlns="http://www.w3.org/2000/svg" xmlns:xlink="http://www.w3.org/1999/xlink" x="0px" y="0px"
	 viewBox="0 0 493.984 493.984" style="enable-background:new 0 0 493.984 493.984;" xml:space="preserve">
<path style="fill:#148DE0;" d="M361.207,454.6V230.462c0-50.838-42.921-90.939-93.775-90.939H226.52
	c-50.846,0-93.743,40.101-93.743,90.939V454.6H361.207z"/>
<g>
	<path style="fill:#0C76BF;" d="M361.207,454.6V230.462c0-50.838-42.921-90.939-93.775-90.939H226.52
		c-50.846,0-91.199,39.7-91.199,90.537"/>
	<path style="fill:#0C76BF;" d="M187.529,356.13c0,3.072-2.473,3.946-5.545,3.946h-22.812c-3.056,0-5.537-0.874-5.537-3.946l0,0
		c0-3.056,2.481-3.931,5.537-3.931h22.812C185.056,352.2,187.529,353.074,187.529,356.13L187.529,356.13z"/>
	<path style="fill:#0C76BF;" d="M187.529,403.392c0,3.064-2.473,3.946-5.545,3.946h-22.812c-3.056,0-5.537-0.882-5.537-3.946l0,0
		c0-3.064,2.481-3.931,5.537-3.931h22.812C185.056,399.461,187.529,400.328,187.529,403.392L187.529,403.392z"/>
	<path style="fill:#0C76BF;" d="M203.669,371.892c0,2.174-1.764,3.938-3.938,3.938h-23.631c-2.174,0-3.938-1.764-3.938-3.938l0,0
		c0-2.174,1.764-3.938,3.938-3.938h23.631C201.904,367.954,203.669,369.718,203.669,371.892L203.669,371.892z"/>
</g>
<g>
	<path style="fill:#148DE0;" d="M329.699,316.754c0,2.174-1.764,3.938-3.938,3.938H302.13c-2.174,0-3.938-1.764-3.938-3.938l0,0
		c0-2.174,1.764-3.938,3.938-3.938h23.631C327.935,312.815,329.699,314.58,329.699,316.754L329.699,316.754z"/>
	<path style="fill:#148DE0;" d="M345.619,348.254c0,3.064-2.473,3.946-5.537,3.946H317.27c-3.056,0-5.537-0.882-5.537-3.946l0,0
		c0-3.056,2.481-3.931,5.537-3.931h22.812C343.145,344.323,345.619,345.197,345.619,348.254L345.619,348.254z"/>
</g>
<circle style="fill:#465453;" cx="246.984" cy="216.63" r="35.202"/>
<g>
	<path style="fill:#2B3534;" d="M246.984,199.025c-16.392,0-30.027,11.24-33.965,26.403c3.938,15.155,17.573,26.403,33.965,26.403
		s30.027-11.248,33.965-26.403C277.011,210.258,263.376,199.025,246.984,199.025z"/>
	<path style="fill:#2B3534;" d="M255.349,208.194c-2.434-2.434-2.442-6.365-0.016-8.791l74.319-74.311
		c2.426-2.426,6.349-2.426,8.791,0.016c2.426,2.418,2.426,6.349,0,8.775l-74.319,74.303
		C261.69,210.62,257.775,210.628,255.349,208.194z"/>
</g>
<path style="fill:#FFA522;" d="M364.799,201.963c-7.278,7.278-19.078,7.278-26.348,0l-35.942-35.942
	c-7.286-7.27-1-12.8,6.278-20.078l93.349-93.342c7.278-7.278,19.094-7.263,26.356,0l29.664,29.657c7.27,7.27,7.278,19.07,0,26.356
	L364.799,201.963z"/>
<path style="fill:#FF7C24;" d="M352.724,189.888l93.334-93.357c7.294-7.278,7.294-19.078,0.016-26.356l-17.581-17.573
	c-7.263-7.263-19.078-7.278-26.356,0l-93.349,93.342c-7.278,7.278-13.564,12.8-6.278,20.078l23.867,23.867
	C333.63,197.151,345.422,197.158,352.724,189.888z"/>
<g>
	<path style="fill:#FFA522;" d="M438.748,114.12c-1.623,1.615-4.261,1.607-5.868,0l-11.705-11.721c-1.623-1.615-1.623-4.23,0-5.853
		l0,0c1.623-1.623,4.246-1.623,5.86-0.016l11.713,11.721C440.347,109.866,440.354,112.497,438.748,114.12L438.748,114.12z"/>
	<path style="fill:#FFA522;" d="M425.207,127.66c-1.615,1.623-4.246,1.623-5.876,0l-11.705-11.713
		c-1.607-1.615-1.607-4.238,0.008-5.86l0,0c1.615-1.615,4.238-1.623,5.845,0l11.721,11.713
		C426.798,123.415,426.814,126.046,425.207,127.66L425.207,127.66z"/>
	<path style="fill:#FFA522;" d="M411.659,141.201c-1.623,1.623-4.261,1.615-5.868,0l-11.721-11.713
		c-1.615-1.623-1.607-4.246,0.016-5.86l0,0c1.607-1.615,4.23-1.623,5.86-0.008l11.697,11.721
		C413.274,136.955,413.274,139.586,411.659,141.201L411.659,141.201z"/>
</g>
<path style="fill:#2B3534;" d="M238.626,225.058c2.434,2.426,2.434,6.372,0,8.799l-74.311,74.303c-2.426,2.426-6.357,2.426-8.799,0
	c-2.426-2.426-2.426-6.357,0-8.791l74.327-74.311C232.27,222.64,236.193,222.632,238.626,225.058z"/>
<path style="fill:#FFA522;" d="M129.169,231.289c7.278-7.286,19.086-7.278,26.348-0.008l35.942,35.942
	c7.278,7.278,0.992,12.784-6.278,20.078l-93.349,93.342c-7.278,7.286-19.102,7.27-26.356,0l-29.657-29.664
	c-7.263-7.27-7.263-19.062,0-26.356L129.169,231.289z"/>
<path style="fill:#FF7C24;" d="M141.252,243.372L47.91,336.714C40.624,344,40.624,355.8,47.903,363.07l17.581,17.573
	c7.255,7.27,19.078,7.286,26.356,0l93.349-93.342c7.27-7.294,13.564-12.8,6.278-20.078L167.6,243.357
	C160.33,236.086,148.538,236.086,141.252,243.372z"/>
<g>
	<path style="fill:#FFA522;" d="M55.22,319.133c1.623-1.615,4.254-1.615,5.868,0.016l11.705,11.697c1.623,1.615,1.623,4.23,0,5.853
		l0,0c-1.623,1.623-4.254,1.615-5.853,0.008L55.22,324.993C53.621,323.378,53.605,320.755,55.22,319.133L55.22,319.133z"/>
	<path style="fill:#FFA522;" d="M68.761,305.592c1.631-1.615,4.261-1.615,5.884,0l11.713,11.721c1.599,1.607,1.599,4.23-0.016,5.853
		l0,0c-1.615,1.623-4.254,1.623-5.853,0.008L68.776,311.46C67.162,309.838,67.154,307.207,68.761,305.592L68.761,305.592z"/>
	<path style="fill:#FFA522;" d="M82.309,292.052c1.623-1.623,4.254-1.623,5.868,0l11.713,11.713c1.615,1.615,1.615,4.238-0.008,5.86
		l0,0c-1.615,1.615-4.238,1.615-5.853,0l-11.705-11.713C80.694,296.297,80.694,293.666,82.309,292.052L82.309,292.052z"/>
</g>
<path style="fill:#2B3534;" d="M255.42,224.98c2.434-2.426,6.365-2.426,8.791,0l74.311,74.311c2.418,2.426,2.418,6.365-0.008,8.791
	c-2.434,2.426-6.349,2.426-8.783,0l-74.311-74.319C252.986,231.336,252.978,227.406,255.42,224.98z"/>
<path style="fill:#FFA522;" d="M261.643,334.437c-7.278-7.27-7.27-19.086,0-26.356l35.935-35.935c7.286-7.294,12.792-1,20.07,6.27
	l93.357,93.357c7.278,7.278,7.278,19.086,0,26.364l-29.657,29.649c-7.27,7.278-19.078,7.278-26.356-0.008L261.643,334.437z"/>
<path style="fill:#FF7C24;" d="M273.726,322.362l93.357,93.334c7.27,7.294,19.07,7.286,26.348,0.016l17.573-17.566
	c7.278-7.278,7.278-19.086,0-26.364l-93.357-93.365c-7.278-7.27-12.784-13.564-20.07-6.27l-23.851,23.843
	C266.448,303.284,266.448,315.076,273.726,322.362z"/>
<g>
	<path style="fill:#FFA522;" d="M349.502,408.386c-1.631-1.623-1.631-4.246,0-5.868l11.705-11.713
		c1.615-1.615,4.238-1.615,5.868,0.008l0,0c1.615,1.623,1.615,4.23,0,5.853l-11.713,11.713
		C353.748,409.993,351.117,410.009,349.502,408.386L349.502,408.386z"/>
	<path style="fill:#FFA522;" d="M335.954,394.846c-1.623-1.623-1.623-4.261,0-5.868l11.697-11.713
		c1.631-1.623,4.246-1.615,5.868,0.008l0,0c1.607,1.615,1.615,4.238,0.008,5.86l-11.721,11.705
		C340.199,396.46,337.569,396.46,335.954,394.846L335.954,394.846z"/>
	<path style="fill:#FFA522;" d="M322.421,381.297c-1.631-1.623-1.623-4.254,0-5.868l11.697-11.705c1.607-1.623,4.23-1.623,5.853,0
		l0,0c1.623,1.623,1.623,4.238,0,5.853l-11.705,11.721C326.651,382.904,324.028,382.912,322.421,381.297L322.421,381.297z"/>
</g>
<path style="fill:#2B3534;" d="M238.556,208.273c-2.442,2.434-6.372,2.426-8.791,0l-74.319-74.303c-2.426-2.434-2.426-6.372,0-8.799
	c2.442-2.426,6.365-2.418,8.791,0l74.311,74.319C240.982,201.908,240.982,205.831,238.556,208.273z"/>
<path style="fill:#FFA522;" d="M232.325,98.807c7.286,7.278,7.263,19.078,0.008,26.356l-35.942,35.95
	c-7.286,7.27-12.784,1-20.07-6.294L82.971,61.478c-7.286-7.278-7.278-19.094,0-26.364l29.657-29.657
	c7.27-7.278,19.07-7.278,26.364,0.008L232.325,98.807z"/>
<path style="fill:#FF7C24;" d="M220.234,110.898l-93.342-93.342c-7.278-7.294-19.07-7.294-26.348-0.016L82.971,35.114
	c-7.278,7.27-7.286,19.078,0,26.364l93.349,93.342c7.286,7.294,12.784,13.564,20.07,6.294l23.859-23.867
	C227.52,129.976,227.52,118.176,220.234,110.898z"/>
<g>
	<path style="fill:#FFA522;" d="M144.466,24.866c1.623,1.623,1.623,4.246,0,5.86L132.761,42.44
		c-1.623,1.615-4.246,1.615-5.868-0.008l0,0c-1.623-1.615-1.607-4.238,0-5.853l11.729-11.713
		C140.228,23.252,142.859,23.244,144.466,24.866L144.466,24.866z"/>
	<path style="fill:#FFA522;" d="M158.014,38.407c1.623,1.623,1.615,4.246,0,5.86l-11.705,11.705c-1.631,1.623-4.238,1.623-5.86,0
		l0,0c-1.607-1.623-1.607-4.246,0-5.86l11.713-11.713C153.768,36.792,156.399,36.792,158.014,38.407L158.014,38.407z"/>
	<path style="fill:#FFA522;" d="M171.554,51.947c1.631,1.615,1.615,4.246,0,5.86l-11.697,11.713
		c-1.615,1.615-4.246,1.615-5.86-0.008l0,0c-1.623-1.615-1.623-4.246-0.008-5.853l11.697-11.713
		C167.309,50.333,169.94,50.333,171.554,51.947L171.554,51.947z"/>
	<circle style="fill:#FFA522;" cx="246.984" cy="216.63" r="17.117"/>
</g>
<path style="fill:#FF7C24;" d="M259.083,204.523c6.695,6.688,6.695,17.518,0,24.198c-6.68,6.68-17.51,6.688-24.206,0"/>
<path style="fill:#559913;" d="M434.722,474.3c0,10.799,14.714,19.684,3.915,19.684H55.33c-10.807,0,3.907-8.885,3.907-19.684l0,0
	c0-10.807,8.751-19.7,19.558-19.7h336.368C425.979,454.6,434.722,463.493,434.722,474.3L434.722,474.3z"/>
<path style="fill:#7DA81D;" d="M415.172,454.6H78.796c-10.587,0-19.149,7.877-19.503,15.754h375.367
	C434.321,462.477,425.751,454.6,415.172,454.6z"/>
<g>
</g>
<g>
</g>
<g>
</g>
<g>
</g>
<g>
</g>
<g>
</g>
<g>
</g>
<g>
</g>
<g>
</g>
<g>
</g>
<g>
</g>
<g>
</g>
<g>
</g>
<g>
</g>
<g>
</g>
</svg>
